{"title":"Roots.2016.COMPLETE.720p.BluRay.x264-DEMAND [S01 Season 1 One]","uid":15577942,"size":18749258983,"categoryP":"video","categoryS":"hd___tv_shows","magnet":"?xt=urn:btih:d8d584cbd7b0f1682788c2b4a366ae39a61db0f3&amp;dn=Roots.2016.COMPLETE.720p.BluRay.x264-DEMAND+%5BS01+Season+1+One%5D&amp;tr=udp%3A%2F%2Ftracker.leechers-paradise.org%3A6969&amp;tr=udp%3A%2F%2Fzer0day.ch%3A1337&amp;tr=udp%3A%2F%2Fopen.demonii.com%3A1337&amp;tr=udp%3A%2F%2Ftracker.coppersurfer.tk%3A6969&amp;tr=udp%3A%2F%2Fexodus.desync.com%3A6969","seeders":15,"leechers":12,"uploader":"GoodFilms","files":6,"time":1471365831,"description":"http://www.imdb.com/title/tt3315386/\r\n\r\nVideo\r\nID                                       : 1\r\nFormat                                   : AVC\r\nFormat/Info                              : Advanced Video Codec\r\nFormat profile                           :   \r\nFormat settings, CABAC                   : Yes\r\nFormat settings, ReFrames                : 5 frames\r\nCodec ID                                 : V_MPEG4/ISO/AVC\r\nDuration                                 : 1h 44mn\r\nBit rate                                 : 4 456 Kbps\r\nWidth                                    : 1 280 pixels\r\nHeight                                   : 720 pixels\r\nDisplay aspect ratio                     : 16:9\r\nFrame rate mode                          : Constant\r\nFrame rate                               : 23.976 (24000/1001) fps\r\nColor space                              : YUV\r\nChroma subsampling                       : 4:2:0\r\nBit depth                                : 8 bits\r\nScan type                                : Progressive\r\nBits/(Pixel*Frame)                       : 0.202\r\nStream size                              : 3.26 GiB (75%)\r\nWriting library                          : x264 core 148 r2705 3f5ed56\r\nDefault                                  : Yes\r\nForced                                   : No\r\n\r\nAudio\r\nID                                       : 2\r\nFormat                                   : DTS\r\nFormat/Info                              : Digital Theater Systems\r\nMode                                     : 16\r\nFormat settings, Endianness              : Big\r\nCodec ID                                 : A_DTS\r\nDuration                                 : 1h 44mn\r\nBit rate mode                            : Constant\r\nBit rate                                 : 1 509 Kbps\r\nChannel(s)                               : 6 channels\r\nChannel positions                        : Front: L C R, Side: L R, LFE\r\nSampling rate                            : 48.0 KHz\r\nFrame rate                               : 93.750 fps (512 spf)\r\nBit depth                                : 24 bits\r\nCompression mode                         : Lossy\r\nStream size                              : 1.10 GiB (25%)\r\nLanguage                                 : English\r\nDefault                                  : Yes\r\nForced                                   : No\r\n\r\nText #1\r\nID                                       : 3\r\nFormat                                   : UTF-8\r\nCodec ID                                 : S_TEXT/UTF8\r\nCodec ID/Info                            : UTF-8 Plain Text\r\nDuration                                 : 1h 44mn\r\nBit rate                                 : 65 bps\r\nCount of elements                        : 1567\r\nStream size                              : 50.0 KiB (0%)\r\nLanguage                                 : English\r\nDefault                                  : No\r\nForced                                   : No\r\n\r\nText #2\r\nID                                       : 4\r\nFormat                                   : UTF-8\r\nCodec ID                                 : S_TEXT/UTF8\r\nCodec ID/Info                            : UTF-8 Plain Text\r\nDuration                                 : 1h 44mn\r\nBit rate                                 : 69 bps\r\nCount of elements                        : 1724\r\nStream size                              : 53.0 KiB (0%)\r\nTitle                                    : SDH\r\nLanguage                                 : English\r\nDefault                                  : No\r\nForced                                   : No\r\n\r\nMenu\r\n00:00:00.000                             : en:00:00:00.000\r\n00:20:45.786                             : en:00:20:45.786\r\n00:30:26.992                             : en:00:30:26.992\r\n00:37:53.271                             : en:00:37:53.271\r\n00:44:08.563                             : en:00:44:08.563\r\n00:52:14.757                             : en:00:52:14.757\r\n01:00:37.592                             : en:01:00:37.592\r\n01:09:09.645                             : en:01:09:09.645\r\n01:19:00.152                             : en:01:19:00.152\r\n01:27:38.211                             : en:01:27:38.211\r\n01:43:46.637                             : en:01:43:46.637","torrent":{"xt":"urn:btih:d8d584cbd7b0f1682788c2b4a366ae39a61db0f3","amp;dn":"Roots.2016.COMPLETE.720p.BluRay.x264-DEMAND+%5BS01+Season+1+One%5D","amp;tr":["udp%3A%2F%2Ftracker.leechers-paradise.org%3A6969","udp%3A%2F%2Fzer0day.ch%3A1337","udp%3A%2F%2Fopen.demonii.com%3A1337","udp%3A%2F%2Ftracker.coppersurfer.tk%3A6969","udp%3A%2F%2Fexodus.desync.com%3A6969"],"infoHash":"d8d584cbd7b0f1682788c2b4a366ae39a61db0f3","infoHashBuffer":{"type":"Buffer","data":[216,213,132,203,215,176,241,104,39,136,194,180,163,102,174,57,166,29,176,243]},"announce":[],"urlList":[]}}